<mxfile host="app.diagrams.net" modified="2020-10-01T10:54:52.465Z" agent="5.0 (Macintosh; Intel Mac OS X 10_15_6) AppleWebKit/537.36 (KHTML, like Gecko) Chrome/85.0.4183.121 Safari/537.36" etag="_DslfMhYowdJm5Xpk0jz" version="13.7.7" type="github">
  <diagram name="Page-1" id="03018318-947c-dd8e-b7a3-06fadd420f32">
    <mxGraphModel dx="1113" dy="722" grid="1" gridSize="10" guides="1" tooltips="1" connect="1" arrows="1" fold="1" page="1" pageScale="1" pageWidth="1100" pageHeight="850" background="#ffffff" math="0" shadow="0">
      <root>
        <mxCell id="0" />
        <mxCell id="1" parent="0" />
        <mxCell id="QSY9I5x3rScWcig4Asy2-20" value="" style="rounded=0;whiteSpace=wrap;html=1;fillColor=#ffffff;fontSize=25;" vertex="1" parent="1">
          <mxGeometry x="120" y="125" width="860" height="550" as="geometry" />
        </mxCell>
        <mxCell id="QSY9I5x3rScWcig4Asy2-19" value="" style="rounded=0;whiteSpace=wrap;html=1;fontSize=25;" vertex="1" parent="1">
          <mxGeometry x="425" y="230" width="250" height="380" as="geometry" />
        </mxCell>
        <mxCell id="QSY9I5x3rScWcig4Asy2-14" value="********" style="strokeWidth=1;shadow=0;dashed=0;align=center;html=1;shape=mxgraph.mockup.forms.pwField;strokeColor=#999999;mainText=;align=left;fontColor=#666666;fontSize=17;spacingLeft=3;" vertex="1" parent="1">
          <mxGeometry x="475" y="500" width="150" height="30" as="geometry" />
        </mxCell>
        <mxCell id="QSY9I5x3rScWcig4Asy2-15" value="Username" style="strokeWidth=1;shadow=0;dashed=0;align=center;html=1;shape=mxgraph.mockup.forms.pwField;strokeColor=#999999;mainText=;align=left;fontColor=#666666;fontSize=17;spacingLeft=3;" vertex="1" parent="1">
          <mxGeometry x="475" y="425" width="150" height="30" as="geometry" />
        </mxCell>
        <mxCell id="QSY9I5x3rScWcig4Asy2-16" value="Sign In&lt;br style=&quot;font-size: 25px;&quot;&gt;" style="text;html=1;strokeColor=none;fillColor=none;align=center;verticalAlign=middle;whiteSpace=wrap;rounded=0;fontSize=25;" vertex="1" parent="1">
          <mxGeometry x="485" y="370" width="130" height="40" as="geometry" />
        </mxCell>
        <mxCell id="QSY9I5x3rScWcig4Asy2-17" value="" style="verticalLabelPosition=bottom;shadow=0;dashed=0;align=center;html=1;verticalAlign=top;strokeWidth=1;shape=mxgraph.mockup.graphics.simpleIcon;strokeColor=#999999;" vertex="1" parent="1">
          <mxGeometry x="470" y="270" width="160" height="70" as="geometry" />
        </mxCell>
        <mxCell id="QSY9I5x3rScWcig4Asy2-21" value="Sign In" style="strokeWidth=1;shadow=0;dashed=0;align=center;html=1;shape=mxgraph.mockup.buttons.button;strokeColor=#666666;fontColor=#ffffff;mainText=;buttonStyle=round;fontSize=17;fontStyle=1;fillColor=#008cff;whiteSpace=wrap;" vertex="1" parent="1">
          <mxGeometry x="493" y="560" width="115" height="30" as="geometry" />
        </mxCell>
      </root>
    </mxGraphModel>
  </diagram>
</mxfile>
